#usda 1.0

def "Renders"
{
    def Camera "overview"
    {
        float2 clippingRange = (0.1, 1000)
        float horizontalAperture = 1414.9755
        token projection = "orthographic"
        float verticalAperture = 884.3597
        matrix4d xformOp:transform = ( (0.894427190999916, 0.447213595499958, 0, 0), (-0.3614163144825182, 0.7228326289650364, 0.588974734712252, -0), (0.2633975087693001, -0.5267950175386003, 0.8081514473603525, 0), (80.00000000000001, -79.04999999888243, 139.86000000000004, 1) )
        uniform token[] xformOpOrder = ["xformOp:transform"]
    }
}

