#usda 1.0

over "demo_datacentre_01"
{
    over "demo_datacentre_01_Site"
    {
        over "demo_datacentre_01"
        {
            over "L02_Office"
            {
                def Xform "Additional_Meeting_Access" (
                    prepend apiSchemas = ["AecoElementAPI", "AecoClassificationAPI:ifc"]
                    prepend inherits = </demo_datacentre_01/_TypeCatalog/Door_Single_900x2100>
                )
                {
                    string aeco:class:ifc:code = "IfcDoor.DOOR"
                    string aeco:class:ifc:name = "Additional Meeting Access"
                    string aeco:id = "3ca0f7bb-160c-52ca-b9b5-52db8a894f1c"
                    uniform token aeco:phase = "proposed"
                    custom string aeco:props:DC_DoorApproach:ApproachNormal = "+X"
                    custom string aeco:props:DC_DoorApproach:ApproachSpace = "sp.kitchen.2"
                    custom double aeco:props:DC_DoorApproach:ThresholdHeight = 1.6
                    custom string aeco:props:DC_Identity:Discipline = "coordination"
                    custom string aeco:props:DC_Identity:Id = "door.office.2b"
                    custom bool aeco:props:Pset_DoorCommon:IsExternal = 0
                    custom string aeco:props:Pset_DoorCommon:Status = "NEW"
                    matrix4d xformOp:transform = ( (0, 1, 0, 0), (-1, 0, 0, 0), (0, 0, 1, 0), (27, -5.95, 7, 1) )
                    uniform token[] xformOpOrder = ["xformOp:transform"]

                    def Mesh "Geom" (
                        prepend apiSchemas = ["AecoDerivedGeometryAPI"]
                    )
                    {
                        uniform token aeco:derived:approx = "tessellated"
                        uniform token aeco:derived:role = "body"
                        string aeco:derived:source = "3ca0f7bb-160c-52ca-b9b5-52db8a894f1c"
                        string aeco:derived:stamp = "ifc2usdaeco (ifcopenshell 0.8.5)"
                        uniform bool doubleSided = 1
                        float3[] extent = [(-0.025, -0.015, 0), (0.925, 0.1, 2.125)]
                        int[] faceVertexCounts = [3, 3, 3, 3, 3, 3, 3, 3, 3, 3, 3, 3, 3, 3, 3, 3, 3, 3, 3, 3, 3, 3, 3, 3, 3, 3, 3, 3, 3, 3, 3, 3, 3, 3, 3, 3, 3, 3, 3, 3, 3, 3, 3, 3, 3, 3, 3, 3, 3, 3, 3, 3, 3, 3, 3, 3, 3, 3, 3, 3, 3, 3, 3, 3, 3, 3, 3, 3, 3, 3, 3, 3, 3, 3, 3, 3, 3, 3, 3, 3, 3, 3, 3, 3, 3, 3, 3, 3, 3, 3, 3, 3, 3, 3, 3, 3, 3, 3, 3, 3, 3, 3, 3, 3, 3, 3, 3, 3, 3, 3, 3, 3, 3, 3, 3, 3, 3, 3, 3, 3, 3, 3, 3, 3, 3, 3, 3, 3, 3, 3, 3, 3, 3, 3, 3, 3, 3, 3, 3, 3, 3, 3, 3, 3, 3, 3, 3, 3, 3, 3, 3, 3, 3, 3, 3, 3, 3, 3, 3, 3, 3, 3, 3, 3, 3, 3, 3, 3, 3, 3, 3, 3, 3, 3, 3, 3]
                        int[] faceVertexIndices = [1, 0, 3, 2, 1, 3, 2, 3, 5, 4, 2, 5, 4, 5, 7, 6, 4, 7, 6, 7, 9, 8, 6, 9, 8, 9, 11, 10, 8, 11, 10, 11, 13, 12, 10, 13, 12, 13, 15, 14, 12, 15, 14, 15, 0, 1, 14, 0, 7, 5, 11, 9, 7, 11, 0, 15, 13, 13, 11, 3, 11, 5, 3, 0, 13, 3, 10, 4, 6, 10, 6, 8, 12, 14, 1, 2, 10, 12, 2, 4, 10, 2, 12, 1, 17, 16, 19, 18, 17, 19, 18, 19, 21, 20, 18, 21, 20, 21, 23, 22, 20, 23, 22, 23, 25, 24, 22, 25, 24, 25, 27, 26, 24, 27, 26, 27, 29, 28, 26, 29, 28, 29, 31, 30, 28, 31, 30, 31, 16, 17, 30, 16, 23, 21, 27, 25, 23, 27, 16, 31, 29, 29, 27, 19, 27, 21, 19, 16, 29, 19, 26, 20, 22, 26, 22, 24, 28, 30, 17, 18, 26, 28, 18, 20, 26, 18, 28, 17, 33, 32, 35, 34, 33, 35, 34, 35, 37, 36, 34, 37, 36, 37, 39, 38, 36, 39, 38, 39, 32, 33, 38, 32, 35, 32, 37, 32, 39, 37, 36, 33, 34, 36, 38, 33, 41, 40, 43, 42, 41, 43, 42, 43, 45, 44, 42, 45, 44, 45, 47, 46, 44, 47, 46, 47, 49, 48, 46, 49, 48, 49, 51, 50, 48, 51, 50, 51, 53, 52, 50, 53, 52, 53, 55, 54, 52, 55, 54, 55, 40, 41, 54, 40, 47, 45, 51, 49, 47, 51, 40, 55, 53, 53, 51, 43, 51, 45, 43, 40, 53, 43, 50, 44, 46, 50, 46, 48, 52, 54, 41, 42, 50, 52, 42, 44, 50, 42, 52, 41, 57, 56, 59, 58, 57, 59, 58, 59, 61, 60, 58, 61, 60, 61, 63, 62, 60, 63, 62, 63, 65, 64, 62, 65, 64, 65, 67, 66, 64, 67, 66, 67, 69, 68, 66, 69, 68, 69, 71, 70, 68, 71, 70, 71, 56, 57, 70, 56, 63, 61, 67, 65, 63, 67, 56, 71, 69, 69, 67, 59, 67, 61, 59, 56, 69, 59, 66, 60, 62, 66, 62, 64, 68, 70, 57, 58, 66, 68, 58, 60, 66, 58, 68, 57, 73, 72, 75, 74, 73, 75, 74, 75, 77, 76, 74, 77, 76, 77, 79, 78, 76, 79, 78, 79, 72, 73, 78, 72, 75, 72, 77, 72, 79, 77, 76, 73, 74, 76, 78, 73, 83, 80, 81, 83, 81, 82, 85, 83, 82, 85, 82, 84, 87, 85, 84, 87, 84, 86, 89, 87, 86, 89, 86, 88, 91, 89, 88, 91, 88, 90, 80, 91, 90, 80, 90, 81, 89, 80, 83, 91, 80, 89, 85, 89, 83, 87, 89, 85, 82, 81, 88, 88, 81, 90, 82, 88, 84, 84, 88, 86, 93, 92, 95, 94, 93, 95, 94, 95, 97, 96, 94, 97, 96, 97, 99, 98, 96, 99, 98, 99, 101, 100, 98, 101, 100, 101, 103, 102, 100, 103, 102, 103, 92, 93, 102, 92, 99, 97, 101, 92, 103, 101, 92, 101, 95, 101, 97, 95, 100, 96, 98, 100, 102, 93, 94, 100, 93, 94, 96, 100]
                        point3f[] points = [(0, 0.025, 0), (0, 0.05, 0), (0, 0.05, 2.1), (0, 0.025, 2.1), (0.9, 0.05, 2.1), (0.9, 0.025, 2.1), (0.9, 0.05, 0), (0.9, 0.025, 0), (0.875, 0.05, 0), (0.875, 0.025, 0), (0.875, 0.05, 2.075), (0.875, 0.025, 2.075), (0.025, 0.05, 2.075), (0.025, 0.025, 2.075), (0.025, 0.05, 0), (0.025, 0.025, 0), (0, 0, 0), (0, 0.025, 0), (0, 0.025, 2.1), (0, 0, 2.1), (0.9, 0.025, 2.1), (0.9, 0, 2.1), (0.9, 0.025, 0), (0.9, 0, 0), (0.85, 0.025, 0), (0.85, 0, 0), (0.85, 0.025, 2.05), (0.85, 0, 2.05), (0.05, 0.025, 2.05), (0.05, 0, 2.05), (0.05, 0.025, 0), (0.05, 0, 0), (0.05, 0, 0), (0.05, 0, 0.025), (0.85, 0, 0.025), (0.85, 0, 0), (0.85, 0.1, 0.025), (0.85, 0.1, 0), (0.05, 0.1, 0.025), (0.05, 0.1, 0), (-0.025, -0.005, 0), (-0.025, 0, 0), (-0.025, 0, 2.125), (-0.025, -0.005, 2.125), (0.925, 0, 2.125), (0.925, -0.005, 2.125), (0.925, 0, 0), (0.925, -0.005, 0), (0.85, 0, 0), (0.85, -0.005, 0), (0.85, 0, 2.05), (0.85, -0.005, 2.05), (0.05, 0, 2.05), (0.05, -0.005, 2.05), (0.05, 0, 0), (0.05, -0.005, 0), (-0.025, 0.05, 0), (-0.025, 0.055, 0), (-0.025, 0.055, 2.125), (-0.025, 0.05, 2.125), (0.925, 0.055, 2.125), (0.925, 0.05, 2.125), (0.925, 0.055, 0), (0.925, 0.05, 0), (0.875, 0.055, 0), (0.875, 0.05, 0), (0.875, 0.055, 2.075), (0.875, 0.05, 2.075), (0.025, 0.055, 2.075), (0.025, 0.05, 2.075), (0.025, 0.055, 0), (0.025, 0.05, 0), (0.025, 0.025, 0.025), (0.025, 0.025, 2.075), (0.875, 0.025, 2.075), (0.875, 0.025, 0.025), (0.875, 0.06, 2.075), (0.875, 0.06, 0.025), (0.025, 0.06, 2.075), (0.025, 0.06, 0.025), (0.825, 0.025, 1.015), (0.825, 0.025, 1.035), (0.825, -0.015, 1.035), (0.825, -0.015, 1.015), (0.705, -0.015, 1.035), (0.705, -0.015, 1.015), (0.705, 0.005, 1.035), (0.705, 0.005, 1.015), (0.805, 0.005, 1.035), (0.805, 0.005, 1.015), (0.805, 0.025, 1.035), (0.805, 0.025, 1.015), (0.825, 0.06, 1.015), (0.825, 0.06, 1.035), (0.825, 0.1, 1.035), (0.825, 0.1, 1.015), (0.705, 0.1, 1.035), (0.705, 0.1, 1.015), (0.705, 0.08, 1.035), (0.705, 0.08, 1.015), (0.805, 0.08, 1.035), (0.805, 0.08, 1.015), (0.805, 0.06, 1.035), (0.805, 0.06, 1.015)]
                        color3f[] primvars:displayColor = [(0.45, 0.47, 0.5)]
                    }
                }
            }
        }
    }
}

